# MagicaVoxel @ Ephtracy

# group
g character2

# material
mtllib character2.mtl
usemtl palette

# normals
vn -1 0 0
vn 1 0 0
vn 0 0 1
vn 0 0 -1
vn 0 -1 0
vn 0 1 0

# texcoords
vt 0.0332031 0.5
vt 0.205078 0.5
vt 0.279297 0.5
vt 0.314453 0.5
vt 0.369141 0.5
vt 0.775391 0.5
vt 0.986328 0.5

# verts
v -13 18 1
v -13 18 -1
v -13 20 1
v -13 20 -1
v -12 17 1
v -12 17 -1
v -12 18 1
v -12 18 -1
v -12 20 1
v -12 20 -1
v -12 21 1
v -12 21 -1
v -8 17 1
v -8 17 -1
v -8 18 1
v -8 18 -1
v -8 20 1
v -8 20 -1
v -8 21 1
v -8 21 -1
v -5 19 -1
v -5 19 -2
v -5 20 -1
v -5 20 -2
v -4 0 3
v -4 0 -2
v -4 1 3
v -4 1 -2
v -4 2 1
v -4 2 -1
v -4 6 1
v -4 6 -1
v -4 7 1
v -4 7 -1
v -4 10 2
v -4 10 1
v -4 10 -1
v -4 10 -2
v -4 11 2
v -4 11 -2
v -4 18 1
v -4 18 -1
v -4 19 -1
v -4 19 -2
v -4 20 1
v -4 20 -2
v -4 21 2
v -4 21 -2
v -4 23 -0
v -4 23 -2
v -4 24 1
v -4 24 -0
v -4 25 2
v -4 25 1
v -4 25 -0
v -4 27 2
v -4 27 -2
v -3 1 -0
v -3 1 -1
v -3 2 -0
v -3 2 -1
v -3 6 -0
v -3 6 -1
v -3 7 -0
v -3 7 -1
v -3 22 2
v -3 22 -2
v -3 23 -0
v -3 23 -2
v -3 24 1
v -3 24 -0
v -3 25 2
v -3 25 1
v -2 18 -2
v -2 18 -3
v -2 21 -2
v -2 22 -2
v -2 23 -2
v -2 26 -2
v -2 26 -3
v -2 27 2
v -2 27 -2
v -2 28 2
v -2 28 -2
v -1 21 1
v -1 21 -1
v -1 22 1
v -1 22 -1
v -1 25 -3
v -1 25 -4
v -1 26 -2
v -1 26 -3
v -1 27 -3
v -1 27 -4
v -1 28 2
v -1 28 1
v -1 28 -2
v -1 28 -3
v -1 29 2
v -1 29 1
v 1 0 3
v 1 0 -2
v 1 1 3
v 1 1 -2
v 1 2 1
v 1 2 -1
v 1 6 1
v 1 6 -1
v 1 7 1
v 1 7 -1
v 1 10 1
v 1 10 -1
v 2 1 -0
v 2 1 -1
v 2 2 -0
v 2 2 -1
v 2 6 -0
v 2 6 -1
v 2 7 -0
v 2 7 -1
v 5 17 1
v 5 17 -1
v 5 18 1
v 5 18 -1
v 5 20 1
v 5 20 -1
v 5 21 1
v 5 21 -1
v 9 17 1
v 9 17 -1
v 9 18 1
v 9 18 -1
v 9 20 1
v 9 20 -1
v 9 21 1
v 9 21 -1
v -9 17 1
v -9 17 -1
v -9 18 1
v -9 18 -1
v -9 20 1
v -9 20 -1
v -9 21 1
v -9 21 -1
v -5 17 1
v -5 17 -1
v -5 18 1
v -5 18 -1
v -5 20 1
v -5 20 -1
v -5 21 1
v -5 21 -1
v -2 1 -0
v -2 1 -1
v -2 2 -0
v -2 2 -1
v -2 6 -0
v -2 6 -1
v -2 7 -0
v -2 7 -1
v -1 0 3
v -1 0 -2
v -1 1 3
v -1 1 -2
v -1 2 1
v -1 2 -1
v -1 6 1
v -1 6 -1
v -1 7 1
v -1 7 -1
v -1 10 1
v -1 10 -1
v 1 21 1
v 1 21 -1
v 1 22 1
v 1 22 -1
v 1 25 -3
v 1 25 -4
v 1 26 -2
v 1 26 -3
v 1 27 -3
v 1 27 -4
v 1 28 2
v 1 28 1
v 1 28 -2
v 1 28 -3
v 1 29 2
v 1 29 1
v 2 18 -2
v 2 18 -3
v 2 21 -2
v 2 22 -2
v 2 23 -2
v 2 26 -2
v 2 26 -3
v 2 27 2
v 2 27 -2
v 2 28 2
v 2 28 -2
v 3 1 -0
v 3 1 -1
v 3 2 -0
v 3 2 -1
v 3 6 -0
v 3 6 -1
v 3 7 -0
v 3 7 -1
v 3 22 2
v 3 22 -2
v 3 23 -0
v 3 23 -2
v 3 24 1
v 3 24 -0
v 3 25 2
v 3 25 1
v 4 0 3
v 4 0 -2
v 4 1 3
v 4 1 -2
v 4 2 1
v 4 2 -1
v 4 6 1
v 4 6 -1
v 4 7 1
v 4 7 -1
v 4 10 2
v 4 10 1
v 4 10 -1
v 4 10 -2
v 4 11 2
v 4 11 -2
v 4 18 1
v 4 18 -1
v 4 20 1
v 4 20 -1
v 4 21 2
v 4 21 -2
v 4 23 -0
v 4 23 -2
v 4 24 1
v 4 24 -0
v 4 25 2
v 4 25 1
v 4 25 -0
v 4 27 2
v 4 27 -2
v 8 17 1
v 8 17 -1
v 8 18 1
v 8 18 -1
v 8 20 1
v 8 20 -1
v 8 21 1
v 8 21 -1
v 12 17 1
v 12 17 -1
v 12 18 1
v 12 18 -1
v 12 20 1
v 12 20 -1
v 12 21 1
v 12 21 -1
v 13 18 1
v 13 18 -1
v 13 20 1
v 13 20 -1
v -4 0 3
v -4 1 3
v -1 0 3
v -1 1 3
v 1 0 3
v 1 1 3
v 4 0 3
v 4 1 3
v -4 10 2
v -4 11 2
v -4 21 2
v -4 25 2
v -4 27 2
v -3 22 2
v -3 25 2
v -2 24 2
v -2 25 2
v -2 26 2
v -2 27 2
v -2 28 2
v -1 24 2
v -1 25 2
v -1 28 2
v -1 29 2
v 0 24 2
v 0 25 2
v 1 24 2
v 1 25 2
v 1 28 2
v 1 29 2
v 2 25 2
v 2 26 2
v 2 27 2
v 2 28 2
v 3 22 2
v 3 25 2
v 4 10 2
v 4 11 2
v 4 21 2
v 4 25 2
v 4 27 2
v -13 18 1
v -13 20 1
v -12 17 1
v -12 18 1
v -12 20 1
v -12 21 1
v -9 17 1
v -9 18 1
v -9 20 1
v -9 21 1
v -8 17 1
v -8 18 1
v -8 20 1
v -8 21 1
v -5 17 1
v -5 18 1
v -5 20 1
v -5 21 1
v -4 2 1
v -4 6 1
v -4 7 1
v -4 10 1
v -4 18 1
v -4 20 1
v -4 24 1
v -4 25 1
v -3 24 1
v -3 25 1
v -1 2 1
v -1 6 1
v -1 7 1
v -1 10 1
v -1 21 1
v -1 22 1
v 1 2 1
v 1 6 1
v 1 7 1
v 1 10 1
v 1 21 1
v 1 22 1
v 3 24 1
v 3 25 1
v 4 2 1
v 4 6 1
v 4 7 1
v 4 10 1
v 4 18 1
v 4 20 1
v 4 24 1
v 4 25 1
v 5 17 1
v 5 18 1
v 5 20 1
v 5 21 1
v 8 17 1
v 8 18 1
v 8 20 1
v 8 21 1
v 9 17 1
v 9 18 1
v 9 20 1
v 9 21 1
v 12 17 1
v 12 18 1
v 12 20 1
v 12 21 1
v 13 18 1
v 13 20 1
v -4 23 -0
v -4 24 -0
v -3 1 -0
v -3 2 -0
v -3 6 -0
v -3 7 -0
v -3 23 -0
v -3 24 -0
v -2 1 -0
v -2 2 -0
v -2 6 -0
v -2 7 -0
v 2 1 -0
v 2 2 -0
v 2 6 -0
v 2 7 -0
v 3 1 -0
v 3 2 -0
v 3 6 -0
v 3 7 -0
v 3 23 -0
v 3 24 -0
v 4 23 -0
v 4 24 -0
v -2 21 -2
v -2 22 -2
v 2 21 -2
v 2 22 -2
v -1 28 1
v -1 29 1
v 1 28 1
v 1 29 1
v -13 18 -1
v -13 20 -1
v -12 17 -1
v -12 18 -1
v -12 20 -1
v -12 21 -1
v -9 17 -1
v -9 18 -1
v -9 20 -1
v -9 21 -1
v -8 17 -1
v -8 18 -1
v -8 20 -1
v -8 21 -1
v -5 17 -1
v -5 18 -1
v -5 19 -1
v -5 20 -1
v -5 21 -1
v -4 2 -1
v -4 6 -1
v -4 7 -1
v -4 10 -1
v -4 18 -1
v -4 19 -1
v -3 1 -1
v -3 2 -1
v -3 6 -1
v -3 7 -1
v -2 1 -1
v -2 2 -1
v -2 6 -1
v -2 7 -1
v -1 2 -1
v -1 6 -1
v -1 7 -1
v -1 10 -1
v -1 21 -1
v -1 22 -1
v 1 2 -1
v 1 6 -1
v 1 7 -1
v 1 10 -1
v 1 21 -1
v 1 22 -1
v 2 1 -1
v 2 2 -1
v 2 6 -1
v 2 7 -1
v 3 1 -1
v 3 2 -1
v 3 6 -1
v 3 7 -1
v 4 2 -1
v 4 6 -1
v 4 7 -1
v 4 10 -1
v 4 18 -1
v 4 20 -1
v 5 17 -1
v 5 18 -1
v 5 20 -1
v 5 21 -1
v 8 17 -1
v 8 18 -1
v 8 20 -1
v 8 21 -1
v 9 17 -1
v 9 18 -1
v 9 20 -1
v 9 21 -1
v 12 17 -1
v 12 18 -1
v 12 20 -1
v 12 21 -1
v 13 18 -1
v 13 20 -1
v -5 19 -2
v -5 20 -2
v -4 0 -2
v -4 1 -2
v -4 10 -2
v -4 11 -2
v -4 19 -2
v -4 20 -2
v -4 21 -2
v -4 23 -2
v -4 27 -2
v -3 22 -2
v -3 23 -2
v -2 18 -2
v -2 21 -2
v -2 22 -2
v -2 23 -2
v -2 26 -2
v -2 27 -2
v -2 28 -2
v -1 0 -2
v -1 1 -2
v -1 26 -2
v -1 28 -2
v 1 0 -2
v 1 1 -2
v 1 26 -2
v 1 28 -2
v 2 18 -2
v 2 21 -2
v 2 22 -2
v 2 23 -2
v 2 26 -2
v 2 27 -2
v 2 28 -2
v 3 22 -2
v 3 23 -2
v 4 0 -2
v 4 1 -2
v 4 10 -2
v 4 11 -2
v 4 21 -2
v 4 23 -2
v 4 27 -2
v -2 18 -3
v -2 26 -3
v -1 25 -3
v -1 26 -3
v -1 27 -3
v -1 28 -3
v 1 25 -3
v 1 26 -3
v 1 27 -3
v 1 28 -3
v 2 18 -3
v 2 26 -3
v -1 25 -4
v -1 27 -4
v 1 25 -4
v 1 27 -4
v -4 0 3
v -1 0 3
v 1 0 3
v 4 0 3
v -4 0 -2
v -1 0 -2
v 1 0 -2
v 4 0 -2
v -4 2 1
v -1 2 1
v 1 2 1
v 4 2 1
v -3 2 -0
v -2 2 -0
v 2 2 -0
v 3 2 -0
v -4 2 -1
v -3 2 -1
v -2 2 -1
v -1 2 -1
v 1 2 -1
v 2 2 -1
v 3 2 -1
v 4 2 -1
v -4 7 1
v -1 7 1
v 1 7 1
v 4 7 1
v -3 7 -0
v -2 7 -0
v 2 7 -0
v 3 7 -0
v -4 7 -1
v -3 7 -1
v -2 7 -1
v -1 7 -1
v 1 7 -1
v 2 7 -1
v 3 7 -1
v 4 7 -1
v -4 10 2
v 4 10 2
v -4 10 1
v -1 10 1
v 1 10 1
v 4 10 1
v -4 10 -1
v -1 10 -1
v 1 10 -1
v 4 10 -1
v -4 10 -2
v 4 10 -2
v -12 17 1
v -9 17 1
v -8 17 1
v -5 17 1
v 5 17 1
v 8 17 1
v 9 17 1
v 12 17 1
v -12 17 -1
v -9 17 -1
v -8 17 -1
v -5 17 -1
v 5 17 -1
v 8 17 -1
v 9 17 -1
v 12 17 -1
v -13 18 1
v -12 18 1
v -9 18 1
v -8 18 1
v -5 18 1
v -4 18 1
v 4 18 1
v 5 18 1
v 8 18 1
v 9 18 1
v 12 18 1
v 13 18 1
v -13 18 -1
v -12 18 -1
v -9 18 -1
v -8 18 -1
v -5 18 -1
v -4 18 -1
v 4 18 -1
v 5 18 -1
v 8 18 -1
v 9 18 -1
v 12 18 -1
v 13 18 -1
v -2 18 -2
v 2 18 -2
v -2 18 -3
v 2 18 -3
v -5 19 -1
v -4 19 -1
v -5 19 -2
v -4 19 -2
v -3 22 2
v 3 22 2
v -1 22 1
v 1 22 1
v -1 22 -1
v 1 22 -1
v -3 22 -2
v -2 22 -2
v 2 22 -2
v 3 22 -2
v -4 23 -0
v -3 23 -0
v 3 23 -0
v 4 23 -0
v -4 23 -2
v -3 23 -2
v 3 23 -2
v 4 23 -2
v -4 24 1
v -3 24 1
v 3 24 1
v 4 24 1
v -4 24 -0
v -3 24 -0
v 3 24 -0
v 4 24 -0
v -4 25 2
v -3 25 2
v 3 25 2
v 4 25 2
v -4 25 1
v -3 25 1
v 3 25 1
v 4 25 1
v -1 25 -3
v 1 25 -3
v -1 25 -4
v 1 25 -4
v -4 1 3
v -1 1 3
v 1 1 3
v 4 1 3
v -3 1 -0
v -2 1 -0
v 2 1 -0
v 3 1 -0
v -3 1 -1
v -2 1 -1
v 2 1 -1
v 3 1 -1
v -4 1 -2
v -1 1 -2
v 1 1 -2
v 4 1 -2
v -4 6 1
v -1 6 1
v 1 6 1
v 4 6 1
v -3 6 -0
v -2 6 -0
v 2 6 -0
v 3 6 -0
v -4 6 -1
v -3 6 -1
v -2 6 -1
v -1 6 -1
v 1 6 -1
v 2 6 -1
v 3 6 -1
v 4 6 -1
v -13 20 1
v -12 20 1
v -9 20 1
v -8 20 1
v -5 20 1
v -4 20 1
v 4 20 1
v 5 20 1
v 8 20 1
v 9 20 1
v 12 20 1
v 13 20 1
v -13 20 -1
v -12 20 -1
v -9 20 -1
v -8 20 -1
v -5 20 -1
v 4 20 -1
v 5 20 -1
v 8 20 -1
v 9 20 -1
v 12 20 -1
v 13 20 -1
v -5 20 -2
v -4 20 -2
v -4 21 2
v 4 21 2
v -12 21 1
v -9 21 1
v -8 21 1
v -5 21 1
v -1 21 1
v 1 21 1
v 5 21 1
v 8 21 1
v 9 21 1
v 12 21 1
v -12 21 -1
v -9 21 -1
v -8 21 -1
v -5 21 -1
v -1 21 -1
v 1 21 -1
v 5 21 -1
v 8 21 -1
v 9 21 -1
v 12 21 -1
v -4 21 -2
v -2 21 -2
v 2 21 -2
v 4 21 -2
v -2 26 -2
v -1 26 -2
v 1 26 -2
v 2 26 -2
v -2 26 -3
v -1 26 -3
v 1 26 -3
v 2 26 -3
v -4 27 2
v -2 27 2
v 2 27 2
v 4 27 2
v -4 27 -2
v -2 27 -2
v 2 27 -2
v 4 27 -2
v -1 27 -3
v 1 27 -3
v -1 27 -4
v 1 27 -4
v -2 28 2
v -1 28 2
v 1 28 2
v 2 28 2
v -1 28 1
v 1 28 1
v -2 28 -2
v -1 28 -2
v 1 28 -2
v 2 28 -2
v -1 28 -3
v 1 28 -3
v -1 29 2
v 1 29 2
v -1 29 1
v 1 29 1

# faces
f 3/1/1 2/1/1 1/1/1
f 4/1/1 2/1/1 3/1/1
f 7/4/1 6/4/1 5/4/1
f 8/4/1 6/4/1 7/4/1
f 11/4/1 10/4/1 9/4/1
f 12/4/1 10/4/1 11/4/1
f 15/4/1 14/4/1 13/4/1
f 16/4/1 14/4/1 15/4/1
f 19/4/1 18/4/1 17/4/1
f 20/4/1 18/4/1 19/4/1
f 23/4/1 22/4/1 21/4/1
f 24/4/1 22/4/1 23/4/1
f 27/5/1 26/5/1 25/5/1
f 28/5/1 26/5/1 27/5/1
f 31/6/1 30/6/1 29/6/1
f 32/6/1 30/6/1 31/6/1
f 36/6/1 34/6/1 33/6/1
f 37/6/1 34/6/1 36/6/1
f 39/3/1 37/3/1 36/3/1
f 39/3/1 38/3/1 37/3/1
f 39/3/1 36/3/1 35/3/1
f 40/3/1 38/3/1 39/3/1
f 41/4/1 40/4/1 39/4/1
f 42/4/1 40/4/1 41/4/1
f 43/4/1 40/4/1 42/4/1
f 44/4/1 40/4/1 43/4/1
f 45/4/1 41/4/1 39/4/1
f 47/4/1 45/4/1 39/4/1
f 47/4/1 46/4/1 45/4/1
f 48/4/1 46/4/1 47/4/1
f 52/2/1 50/2/1 49/2/1
f 54/1/1 52/1/1 51/1/1
f 55/2/1 50/2/1 52/2/1
f 55/1/1 52/1/1 54/1/1
f 56/2/1 54/2/1 53/2/1
f 56/2/1 55/2/1 54/2/1
f 57/2/1 50/2/1 55/2/1
f 57/2/1 55/2/1 56/2/1
f 60/6/1 59/6/1 58/6/1
f 61/6/1 59/6/1 60/6/1
f 64/6/1 63/6/1 62/6/1
f 65/6/1 63/6/1 64/6/1
f 68/1/1 67/1/1 66/1/1
f 69/1/1 67/1/1 68/1/1
f 70/1/1 68/1/1 66/1/1
f 71/1/1 68/1/1 70/1/1
f 72/1/1 70/1/1 66/1/1
f 73/1/1 70/1/1 72/1/1
f 76/2/1 75/2/1 74/2/1
f 77/2/1 75/2/1 76/2/1
f 78/2/1 75/2/1 77/2/1
f 79/2/1 75/2/1 78/2/1
f 80/2/1 75/2/1 79/2/1
f 83/2/1 82/2/1 81/2/1
f 84/2/1 82/2/1 83/2/1
f 87/1/1 86/1/1 85/1/1
f 88/1/1 86/1/1 87/1/1
f 92/2/1 90/2/1 89/2/1
f 93/2/1 90/2/1 92/2/1
f 93/2/1 92/2/1 91/2/1
f 94/2/1 90/2/1 93/2/1
f 97/2/1 93/2/1 91/2/1
f 98/2/1 93/2/1 97/2/1
f 99/2/1 96/2/1 95/2/1
f 100/2/1 96/2/1 99/2/1
f 103/5/1 102/5/1 101/5/1
f 104/5/1 102/5/1 103/5/1
f 107/6/1 106/6/1 105/6/1
f 108/6/1 106/6/1 107/6/1
f 111/6/1 110/6/1 109/6/1
f 112/6/1 110/6/1 111/6/1
f 115/6/1 114/6/1 113/6/1
f 116/6/1 114/6/1 115/6/1
f 119/6/1 118/6/1 117/6/1
f 120/6/1 118/6/1 119/6/1
f 123/4/1 122/4/1 121/4/1
f 124/4/1 122/4/1 123/4/1
f 127/4/1 126/4/1 125/4/1
f 128/4/1 126/4/1 127/4/1
f 131/4/1 130/4/1 129/4/1
f 132/4/1 130/4/1 131/4/1
f 135/4/1 134/4/1 133/4/1
f 136/4/1 134/4/1 135/4/1
f 137/4/2 138/4/2 139/4/2
f 139/4/2 138/4/2 140/4/2
f 141/4/2 142/4/2 143/4/2
f 143/4/2 142/4/2 144/4/2
f 145/4/2 146/4/2 147/4/2
f 147/4/2 146/4/2 148/4/2
f 149/4/2 150/4/2 151/4/2
f 151/4/2 150/4/2 152/4/2
f 153/6/2 154/6/2 155/6/2
f 155/6/2 154/6/2 156/6/2
f 157/6/2 158/6/2 159/6/2
f 159/6/2 158/6/2 160/6/2
f 161/5/2 162/5/2 163/5/2
f 163/5/2 162/5/2 164/5/2
f 165/6/2 166/6/2 167/6/2
f 167/6/2 166/6/2 168/6/2
f 169/6/2 170/6/2 171/6/2
f 171/6/2 170/6/2 172/6/2
f 173/1/2 174/1/2 175/1/2
f 175/1/2 174/1/2 176/1/2
f 177/2/2 178/2/2 180/2/2
f 180/2/2 178/2/2 181/2/2
f 179/2/2 180/2/2 181/2/2
f 181/2/2 178/2/2 182/2/2
f 179/2/2 181/2/2 185/2/2
f 185/2/2 181/2/2 186/2/2
f 183/2/2 184/2/2 187/2/2
f 187/2/2 184/2/2 188/2/2
f 189/2/2 190/2/2 191/2/2
f 191/2/2 190/2/2 192/2/2
f 192/2/2 190/2/2 193/2/2
f 193/2/2 190/2/2 194/2/2
f 194/2/2 190/2/2 195/2/2
f 196/2/2 197/2/2 198/2/2
f 198/2/2 197/2/2 199/2/2
f 200/6/2 201/6/2 202/6/2
f 202/6/2 201/6/2 203/6/2
f 204/6/2 205/6/2 206/6/2
f 206/6/2 205/6/2 207/6/2
f 208/1/2 209/1/2 210/1/2
f 210/1/2 209/1/2 211/1/2
f 208/1/2 210/1/2 212/1/2
f 212/1/2 210/1/2 213/1/2
f 208/1/2 212/1/2 214/1/2
f 214/1/2 212/1/2 215/1/2
f 216/5/2 217/5/2 218/5/2
f 218/5/2 217/5/2 219/5/2
f 220/6/2 221/6/2 222/6/2
f 222/6/2 221/6/2 223/6/2
f 224/6/2 225/6/2 227/6/2
f 227/6/2 225/6/2 228/6/2
f 227/3/2 228/3/2 230/3/2
f 228/3/2 229/3/2 230/3/2
f 226/3/2 227/3/2 230/3/2
f 230/3/2 229/3/2 231/3/2
f 230/4/2 231/4/2 232/4/2
f 232/4/2 231/4/2 233/4/2
f 230/4/2 232/4/2 234/4/2
f 233/4/2 231/4/2 235/4/2
f 230/4/2 234/4/2 236/4/2
f 234/4/2 235/4/2 236/4/2
f 235/4/2 231/4/2 237/4/2
f 236/4/2 235/4/2 237/4/2
f 238/2/2 239/2/2 241/2/2
f 240/1/2 241/1/2 243/1/2
f 241/2/2 239/2/2 244/2/2
f 243/1/2 241/1/2 244/1/2
f 242/2/2 243/2/2 245/2/2
f 243/2/2 244/2/2 245/2/2
f 244/2/2 239/2/2 246/2/2
f 245/2/2 244/2/2 246/2/2
f 247/4/2 248/4/2 249/4/2
f 249/4/2 248/4/2 250/4/2
f 251/4/2 252/4/2 253/4/2
f 253/4/2 252/4/2 254/4/2
f 255/4/2 256/4/2 257/4/2
f 257/4/2 256/4/2 258/4/2
f 259/4/2 260/4/2 261/4/2
f 261/4/2 260/4/2 262/4/2
f 263/1/2 264/1/2 265/1/2
f 265/1/2 264/1/2 266/1/2
f 269/5/3 268/5/3 267/5/3
f 270/5/3 268/5/3 269/5/3
f 273/5/3 272/5/3 271/5/3
f 274/5/3 272/5/3 273/5/3
f 281/2/3 279/2/3 278/2/3
f 282/1/3 281/1/3 280/1/3
f 283/2/3 279/2/3 281/2/3
f 283/1/3 281/1/3 282/1/3
f 284/2/3 279/2/3 283/2/3
f 285/2/3 279/2/3 284/2/3
f 287/1/3 282/1/3 280/1/3
f 287/7/3 283/7/3 282/7/3
f 288/1/3 284/1/3 283/1/3
f 288/7/3 283/7/3 287/7/3
f 289/2/3 286/2/3 285/2/3
f 289/2/3 285/2/3 284/2/3
f 291/1/3 288/1/3 287/1/3
f 291/1/3 287/1/3 280/1/3
f 292/1/3 284/1/3 288/1/3
f 292/1/3 288/1/3 291/1/3
f 293/1/3 291/1/3 280/1/3
f 293/7/3 292/7/3 291/7/3
f 294/1/3 284/1/3 292/1/3
f 294/7/3 292/7/3 293/7/3
f 295/2/3 290/2/3 289/2/3
f 295/2/3 289/2/3 284/2/3
f 296/2/3 290/2/3 295/2/3
f 297/1/3 284/1/3 294/1/3
f 297/1/3 294/1/3 293/1/3
f 298/2/3 295/2/3 284/2/3
f 298/1/3 284/1/3 297/1/3
f 299/2/3 295/2/3 298/2/3
f 300/2/3 295/2/3 299/2/3
f 301/1/3 293/1/3 280/1/3
f 301/1/3 297/1/3 293/1/3
f 302/2/3 299/2/3 298/2/3
f 302/1/3 297/1/3 301/1/3
f 302/2/3 298/2/3 297/2/3
f 303/3/3 276/3/3 275/3/3
f 304/4/3 277/4/3 276/4/3
f 304/3/3 276/3/3 303/3/3
f 305/4/3 277/4/3 304/4/3
f 306/2/3 299/2/3 302/2/3
f 307/2/3 299/2/3 306/2/3
f 311/1/3 309/1/3 308/1/3
f 312/1/3 309/1/3 311/1/3
f 314/4/3 311/4/3 310/4/3
f 314/4/3 313/4/3 312/4/3
f 314/4/3 312/4/3 311/4/3
f 315/4/3 313/4/3 314/4/3
f 316/4/3 313/4/3 315/4/3
f 317/4/3 313/4/3 316/4/3
f 319/4/3 316/4/3 315/4/3
f 320/4/3 316/4/3 319/4/3
f 322/4/3 319/4/3 318/4/3
f 322/4/3 321/4/3 320/4/3
f 322/4/3 320/4/3 319/4/3
f 323/4/3 321/4/3 322/4/3
f 324/4/3 321/4/3 323/4/3
f 325/4/3 321/4/3 324/4/3
f 330/4/3 324/4/3 323/4/3
f 331/4/3 324/4/3 330/4/3
f 334/1/3 333/1/3 332/1/3
f 335/1/3 333/1/3 334/1/3
f 336/6/3 327/6/3 326/6/3
f 337/6/3 327/6/3 336/6/3
f 338/6/3 329/6/3 328/6/3
f 339/6/3 329/6/3 338/6/3
f 346/1/3 341/1/3 340/1/3
f 347/1/3 341/1/3 346/1/3
f 350/6/3 343/6/3 342/6/3
f 351/6/3 343/6/3 350/6/3
f 352/6/3 345/6/3 344/6/3
f 353/6/3 345/6/3 352/6/3
f 356/1/3 349/1/3 348/1/3
f 357/1/3 349/1/3 356/1/3
f 359/4/3 355/4/3 354/4/3
f 360/4/3 355/4/3 359/4/3
f 362/4/3 359/4/3 358/4/3
f 362/4/3 361/4/3 360/4/3
f 362/4/3 360/4/3 359/4/3
f 363/4/3 361/4/3 362/4/3
f 364/4/3 361/4/3 363/4/3
f 365/4/3 361/4/3 364/4/3
f 367/4/3 364/4/3 363/4/3
f 368/4/3 364/4/3 367/4/3
f 370/4/3 367/4/3 366/4/3
f 370/4/3 369/4/3 368/4/3
f 370/4/3 368/4/3 367/4/3
f 371/4/3 369/4/3 370/4/3
f 372/4/3 369/4/3 371/4/3
f 373/4/3 369/4/3 372/4/3
f 374/1/3 372/1/3 371/1/3
f 375/1/3 372/1/3 374/1/3
f 382/2/3 377/2/3 376/2/3
f 383/2/3 377/2/3 382/2/3
f 384/6/3 379/6/3 378/6/3
f 385/6/3 379/6/3 384/6/3
f 386/6/3 381/6/3 380/6/3
f 387/6/3 381/6/3 386/6/3
f 392/6/3 389/6/3 388/6/3
f 393/6/3 389/6/3 392/6/3
f 394/6/3 391/6/3 390/6/3
f 395/6/3 391/6/3 394/6/3
f 398/2/3 397/2/3 396/2/3
f 399/2/3 397/2/3 398/2/3
f 402/2/3 401/2/3 400/2/3
f 403/2/3 401/2/3 402/2/3
f 404/2/4 405/2/4 406/2/4
f 406/2/4 405/2/4 407/2/4
f 408/1/4 409/1/4 411/1/4
f 411/1/4 409/1/4 412/1/4
f 410/4/4 411/4/4 414/4/4
f 412/4/4 413/4/4 414/4/4
f 411/4/4 412/4/4 414/4/4
f 414/4/4 413/4/4 415/4/4
f 415/4/4 413/4/4 416/4/4
f 416/4/4 413/4/4 417/4/4
f 415/4/4 416/4/4 419/4/4
f 419/4/4 416/4/4 420/4/4
f 418/4/4 419/4/4 422/4/4
f 420/4/4 421/4/4 422/4/4
f 419/4/4 420/4/4 422/4/4
f 422/4/4 421/4/4 423/4/4
f 423/4/4 421/4/4 424/4/4
f 424/4/4 421/4/4 425/4/4
f 425/4/4 421/4/4 426/4/4
f 423/4/4 424/4/4 431/4/4
f 431/4/4 424/4/4 432/4/4
f 427/6/4 428/6/4 434/6/4
f 434/6/4 428/6/4 435/6/4
f 429/6/4 430/6/4 436/6/4
f 434/6/4 435/6/4 437/6/4
f 435/6/4 436/6/4 437/6/4
f 433/6/4 434/6/4 437/6/4
f 437/6/4 436/6/4 438/6/4
f 438/6/4 436/6/4 439/6/4
f 436/6/4 430/6/4 440/6/4
f 439/6/4 436/6/4 440/6/4
f 438/6/4 439/6/4 441/6/4
f 441/6/4 439/6/4 442/6/4
f 440/6/4 430/6/4 443/6/4
f 443/6/4 430/6/4 444/6/4
f 445/1/4 446/1/4 451/1/4
f 451/1/4 446/1/4 452/1/4
f 447/6/4 448/6/4 454/6/4
f 454/6/4 448/6/4 455/6/4
f 449/6/4 450/6/4 456/6/4
f 454/6/4 455/6/4 457/6/4
f 455/6/4 456/6/4 457/6/4
f 453/6/4 454/6/4 457/6/4
f 457/6/4 456/6/4 458/6/4
f 458/6/4 456/6/4 459/6/4
f 456/6/4 450/6/4 460/6/4
f 459/6/4 456/6/4 460/6/4
f 458/6/4 459/6/4 461/6/4
f 461/6/4 459/6/4 462/6/4
f 460/6/4 450/6/4 463/6/4
f 463/6/4 450/6/4 464/6/4
f 465/4/4 466/4/4 468/4/4
f 468/4/4 466/4/4 469/4/4
f 467/4/4 468/4/4 471/4/4
f 469/4/4 470/4/4 471/4/4
f 468/4/4 469/4/4 471/4/4
f 471/4/4 470/4/4 472/4/4
f 472/4/4 470/4/4 473/4/4
f 473/4/4 470/4/4 474/4/4
f 472/4/4 473/4/4 476/4/4
f 476/4/4 473/4/4 477/4/4
f 475/4/4 476/4/4 479/4/4
f 477/4/4 478/4/4 479/4/4
f 476/4/4 477/4/4 479/4/4
f 479/4/4 478/4/4 480/4/4
f 480/4/4 478/4/4 481/4/4
f 481/4/4 478/4/4 482/4/4
f 480/1/4 481/1/4 483/1/4
f 483/1/4 481/1/4 484/1/4
f 485/4/4 486/4/4 491/4/4
f 491/4/4 486/4/4 492/4/4
f 494/2/4 495/2/4 497/2/4
f 490/4/4 491/4/4 498/4/4
f 491/4/4 492/4/4 498/4/4
f 492/4/4 493/4/4 498/4/4
f 498/4/4 493/4/4 499/4/4
f 496/1/4 497/1/4 500/1/4
f 497/2/4 495/2/4 501/2/4
f 500/1/4 497/1/4 501/1/4
f 501/2/4 495/2/4 502/2/4
f 502/2/4 495/2/4 503/2/4
f 487/5/4 488/5/4 505/5/4
f 505/5/4 488/5/4 506/5/4
f 503/2/4 504/2/4 507/2/4
f 502/2/4 503/2/4 507/2/4
f 507/2/4 504/2/4 508/2/4
f 490/4/4 498/4/4 513/4/4
f 511/2/4 512/2/4 517/2/4
f 517/2/4 512/2/4 518/2/4
f 518/2/4 512/2/4 519/2/4
f 515/1/4 516/1/4 520/1/4
f 516/2/4 517/2/4 521/2/4
f 520/1/4 516/1/4 521/1/4
f 517/2/4 518/2/4 521/2/4
f 509/5/4 510/5/4 522/5/4
f 522/5/4 510/5/4 523/5/4
f 489/3/4 490/3/4 524/3/4
f 490/4/4 513/4/4 525/4/4
f 524/3/4 490/3/4 525/3/4
f 513/4/4 514/4/4 525/4/4
f 525/4/4 514/4/4 526/4/4
f 521/2/4 518/2/4 527/2/4
f 527/2/4 518/2/4 528/2/4
f 529/2/4 530/2/4 531/2/4
f 531/2/4 530/2/4 532/2/4
f 529/2/4 531/2/4 535/2/4
f 533/2/4 534/2/4 537/2/4
f 537/2/4 534/2/4 538/2/4
f 535/2/4 536/2/4 539/2/4
f 529/2/4 535/2/4 539/2/4
f 539/2/4 536/2/4 540/2/4
f 541/2/4 542/2/4 543/2/4
f 543/2/4 542/2/4 544/2/4
f 549/5/5 546/5/5 545/5/5
f 550/5/5 546/5/5 549/5/5
f 551/5/5 548/5/5 547/5/5
f 552/5/5 548/5/5 551/5/5
f 557/6/5 554/6/5 553/6/5
f 558/6/5 554/6/5 557/6/5
f 559/6/5 556/6/5 555/6/5
f 560/6/5 556/6/5 559/6/5
f 561/6/5 557/6/5 553/6/5
f 562/6/5 557/6/5 561/6/5
f 563/6/5 554/6/5 558/6/5
f 564/6/5 554/6/5 563/6/5
f 565/6/5 559/6/5 555/6/5
f 566/6/5 559/6/5 565/6/5
f 567/6/5 556/6/5 560/6/5
f 568/6/5 556/6/5 567/6/5
f 573/6/5 570/6/5 569/6/5
f 574/6/5 570/6/5 573/6/5
f 575/6/5 572/6/5 571/6/5
f 576/6/5 572/6/5 575/6/5
f 577/6/5 573/6/5 569/6/5
f 578/6/5 573/6/5 577/6/5
f 579/6/5 570/6/5 574/6/5
f 580/6/5 570/6/5 579/6/5
f 581/6/5 575/6/5 571/6/5
f 582/6/5 575/6/5 581/6/5
f 583/6/5 572/6/5 576/6/5
f 584/6/5 572/6/5 583/6/5
f 587/3/5 586/3/5 585/3/5
f 588/3/5 586/3/5 587/3/5
f 589/3/5 586/3/5 588/3/5
f 590/3/5 586/3/5 589/3/5
f 592/4/5 589/4/5 588/4/5
f 593/4/5 589/4/5 592/4/5
f 595/3/5 592/3/5 591/3/5
f 595/3/5 594/3/5 593/3/5
f 595/3/5 593/3/5 592/3/5
f 596/3/5 594/3/5 595/3/5
f 605/4/5 598/4/5 597/4/5
f 606/4/5 598/4/5 605/4/5
f 607/4/5 600/4/5 599/4/5
f 608/4/5 600/4/5 607/4/5
f 609/4/5 602/4/5 601/4/5
f 610/4/5 602/4/5 609/4/5
f 611/4/5 604/4/5 603/4/5
f 612/4/5 604/4/5 611/4/5
f 625/1/5 614/1/5 613/1/5
f 626/1/5 614/1/5 625/1/5
f 627/4/5 616/4/5 615/4/5
f 628/4/5 616/4/5 627/4/5
f 629/4/5 618/4/5 617/4/5
f 630/4/5 618/4/5 629/4/5
f 631/4/5 620/4/5 619/4/5
f 632/4/5 620/4/5 631/4/5
f 633/4/5 622/4/5 621/4/5
f 634/4/5 622/4/5 633/4/5
f 635/1/5 624/1/5 623/1/5
f 636/1/5 624/1/5 635/1/5
f 639/2/5 638/2/5 637/2/5
f 640/2/5 638/2/5 639/2/5
f 643/4/5 642/4/5 641/4/5
f 644/4/5 642/4/5 643/4/5
f 647/1/5 646/1/5 645/1/5
f 648/1/5 646/1/5 647/1/5
f 649/1/5 647/1/5 645/1/5
f 650/1/5 646/1/5 648/1/5
f 651/1/5 649/1/5 645/1/5
f 651/1/5 650/1/5 649/1/5
f 652/1/5 650/1/5 651/1/5
f 653/1/5 646/1/5 650/1/5
f 653/1/5 650/1/5 652/1/5
f 654/1/5 646/1/5 653/1/5
f 659/2/5 656/2/5 655/2/5
f 660/2/5 656/2/5 659/2/5
f 661/2/5 658/2/5 657/2/5
f 662/2/5 658/2/5 661/2/5
f 667/1/5 664/1/5 663/1/5
f 668/1/5 664/1/5 667/1/5
f 669/1/5 666/1/5 665/1/5
f 670/1/5 666/1/5 669/1/5
f 675/2/5 672/2/5 671/2/5
f 676/2/5 672/2/5 675/2/5
f 677/2/5 674/2/5 673/2/5
f 678/2/5 674/2/5 677/2/5
f 681/2/5 680/2/5 679/2/5
f 682/2/5 680/2/5 681/2/5
f 683/5/6 684/5/6 687/5/6
f 687/5/6 684/5/6 688/5/6
f 685/5/6 686/5/6 689/5/6
f 689/5/6 686/5/6 690/5/6
f 683/5/6 687/5/6 691/5/6
f 688/5/6 684/5/6 692/5/6
f 685/5/6 689/5/6 693/5/6
f 690/5/6 686/5/6 694/5/6
f 683/5/6 691/5/6 695/5/6
f 691/5/6 692/5/6 695/5/6
f 692/5/6 684/5/6 696/5/6
f 695/5/6 692/5/6 696/5/6
f 693/5/6 694/5/6 697/5/6
f 685/5/6 693/5/6 697/5/6
f 694/5/6 686/5/6 698/5/6
f 697/5/6 694/5/6 698/5/6
f 699/6/6 700/6/6 703/6/6
f 703/6/6 700/6/6 704/6/6
f 701/6/6 702/6/6 705/6/6
f 705/6/6 702/6/6 706/6/6
f 699/6/6 703/6/6 707/6/6
f 707/6/6 703/6/6 708/6/6
f 704/6/6 700/6/6 709/6/6
f 709/6/6 700/6/6 710/6/6
f 701/6/6 705/6/6 711/6/6
f 711/6/6 705/6/6 712/6/6
f 706/6/6 702/6/6 713/6/6
f 713/6/6 702/6/6 714/6/6
f 715/1/6 716/1/6 727/1/6
f 727/1/6 716/1/6 728/1/6
f 717/4/6 718/4/6 729/4/6
f 729/4/6 718/4/6 730/4/6
f 719/4/6 720/4/6 731/4/6
f 721/4/6 722/4/6 732/4/6
f 732/4/6 722/4/6 733/4/6
f 723/4/6 724/4/6 734/4/6
f 734/4/6 724/4/6 735/4/6
f 725/1/6 726/1/6 736/1/6
f 736/1/6 726/1/6 737/1/6
f 731/4/6 720/4/6 738/4/6
f 738/4/6 720/4/6 739/4/6
f 740/4/6 741/4/6 746/4/6
f 746/4/6 741/4/6 747/4/6
f 742/4/6 743/4/6 752/4/6
f 752/4/6 743/4/6 753/4/6
f 744/4/6 745/4/6 754/4/6
f 754/4/6 745/4/6 755/4/6
f 740/4/6 746/4/6 756/4/6
f 747/4/6 741/4/6 757/4/6
f 748/4/6 749/4/6 758/4/6
f 758/4/6 749/4/6 759/4/6
f 750/4/6 751/4/6 760/4/6
f 760/4/6 751/4/6 761/4/6
f 756/4/6 757/4/6 762/4/6
f 740/4/6 756/4/6 762/4/6
f 762/4/6 757/4/6 763/4/6
f 757/4/6 741/4/6 764/4/6
f 763/4/6 757/4/6 764/4/6
f 764/4/6 741/4/6 765/4/6
f 766/2/6 767/2/6 770/2/6
f 770/2/6 767/2/6 771/2/6
f 768/2/6 769/2/6 772/2/6
f 772/2/6 769/2/6 773/2/6
f 774/2/6 775/2/6 778/2/6
f 778/2/6 775/2/6 779/2/6
f 776/2/6 777/2/6 780/2/6
f 780/2/6 777/2/6 781/2/6
f 782/2/6 783/2/6 784/2/6
f 784/2/6 783/2/6 785/2/6
f 786/2/6 787/2/6 790/2/6
f 788/2/6 789/2/6 791/2/6
f 786/2/6 790/2/6 792/2/6
f 790/2/6 791/2/6 792/2/6
f 792/2/6 791/2/6 793/2/6
f 791/2/6 789/2/6 794/2/6
f 793/2/6 791/2/6 794/2/6
f 794/2/6 789/2/6 795/2/6
f 793/2/6 794/2/6 796/2/6
f 796/2/6 794/2/6 797/2/6
f 798/2/6 799/2/6 800/2/6
f 800/2/6 799/2/6 801/2/6
